/* XPM */
static char *_8f5259caeac4d48f772ce4b4f9c9f4c[] = {
/* columns rows colors chars-per-pixel */
"64 64 42 1 ",
"  c #F7931A",
". c #F79622",
"X c #F79826",
"o c #F79B2C",
"O c #F79E32",
"+ c #F7A037",
"@ c #F7A23B",
"# c #F8A33D",
"$ c #F8A643",
"% c #F8A847",
"& c #F8AB4D",
"* c #F8AD52",
"= c #F8B25D",
"- c #F9B563",
"; c #F9B96D",
": c #FABD75",
"> c #FABF79",
", c #FAC27E",
"< c #FAC482",
"1 c #FAC78A",
"2 c #FAC98E",
"3 c #FACC94",
"4 c #FBCE9A",
"5 c #FBD19F",
"6 c #FBD3A3",
"7 c #FBD6AA",
"8 c #FCD8AD",
"9 c #FCDBB5",
"0 c #FCDDBA",
"q c #FCE0BF",
"w c #FCDFC0",
"e c #FCE2C3",
"r c #FDE5CA",
"t c #FDE8CF",
"y c #FDEAD4",
"u c #FDEEDC",
"i c #FDF0DF",
"p c #FDF2E4",
"a c #FEF5EB",
"s c #FEF7F1",
"d c #FEF9F4",
"f c #FFFFFF",
/* pixels */
"ffffffffffffffffffffffffffffptr99rrpdfffffffffffffffffffffffffff",
"fffffffffffffffffffffffa6>%.        .#;6ufffffffffffffffffffffff",
"ffffffffffffffffffffa3%                  +,yffffffffffffffffffff",
"fffffffffffffffffft-                        *9ffffffffffffffffff",
"ffffffffffffffffu=                            #9ffffffffffffffff",
"ffffffffffffffd<                                =pffffffffffffff",
"ffffffffffffft#                                  X8fffffffffffff",
"ffffffffffff6                                      ;dfffffffffff",
"ffffffffffd,                                        &sffffffffff",
"fffffffffd-                                          $pfffffffff",
"fffffffff=                                            #dffffffff",
"ffffffff>                                              %dfffffff",
"fffffff6                                                ;fffffff",
"fffffft          0ppO  <up,                              6ffffff",
"fffffd@          pff@  1ff3                              .ufffff",
"fffff<           iff#  2ff<                               *fffff",
"ffffu.           yff#  2ff2                                8ffff",
"ffff-            pff@  1ff3                                Odfff",
"fffy      ooOooooaff-%%7ff4&&&&&&&&&&&&&&&&&&&&&&&&+        6fff",
"fff;     .dffffffffffffffffffffffffffffffffffffffffd;       #fff",
"ffs.      dfffffffffffffffffffffffffffffffffffffffffe        eff",
"ff6      .ffffffffffffffffffffffffffffffffffffffffff1        ;ff",
"ff*       #$$>dffffpOooo#=3ufffffffa,,,,,<,,<,<>,,<-         odf",
"fa            3ffffi       .6ffffffu                          0f",
"f9            >ffffy        .afffffu                          ,f",
"f<            >ffffu         efffffy                          %f",
"f*            >ffffy         8fffffu                          .f",
"fO            ,fffft         efffffu                           u",
"d             >ffffy        &dfffffu                           q",
"p             ,ffffp      o,dffffffduuupiuiiiiiuiiuy=          7",
"t             ,ffffd66679udfffffffffffffffffffffffffa          3",
"r             ,fffffffffffffffffffffffffffffffffffffp          3",
"e             <ffffffffffffffffffffdtyyytyyyyyyyyyyr&          2",
"r             <fffff&ooOO%:6affffffu                           3",
"p             <fffff$       o9fffffu                           8",
"a             <fffff$        .yffffu                           w",
"fo            <fffff#         1ffffu                           u",
"f&            <fffff#         <ffffy                          .f",
"f<            <fffff#         7ffffu                          %f",
"f8            <fffff#        =dffffu                          >f",
"fp            6fffff@     .$4dfffffu                          0f",
"ff%       -97wffffff96667raffffffffd9000000000000009-        .sf",
"ff3       6fffffffffffffffffffffffffffffffffffffffffd#       -ff",
"ffa.      effffffffffffffffffffffffffffffffffffffffff&       0ff",
"fff-      adffdffffffffffffdddddddddddddddddddssddds4       Odff",
"fffy      ...o.ooaff$$%0ff2.. .    . . .. . . .  ..         3fff",
"ffff=            afd.  6ff:                                Odfff",
"ffffy            ffdX  6ff>                                6ffff",
"fffff>           affo  6ff>                               $fffff",
"fffffs+          dfd.  7ff>                               tfffff",
"ffffffe          sddX  4dd:                              2ffffff",
"fffffff2                .                               =fffffff",
"ffffffff-                                              #sfffffff",
"ffffffffd=                                            +pffffffff",
"fffffffffs=                                          +pfffffffff",
"ffffffffffd=                                        $iffffffffff",
"ffffffffffff<                                      =dfffffffffff",
"fffffffffffff0o                                   3fffffffffffff",
"ffffffffffffffa-                                &yffffffffffffff",
"ffffffffffffffffe$                            +6ffffffffffffffff",
"ffffffffffffffffff9&                        @6dfffffffffffffffff",
"ffffffffffffffffffffy<@                  o;qffffffffffffffffffff",
"ffffffffffffffffffffffdy3=o          o%<edffffffffffffffffffffff",
"fffffffffffffffffffffffffffstq88889rpfffffffffffffffffffffffffff"
};
