/* XPM */
static char *e1b15004eeb647429112e4935f8ecca6[] = {
/* columns rows colors chars-per-pixel */
"128 128 47 1 ",
"  c #F7931A",
". c #F79622",
"X c #F79926",
"o c #F79A2B",
"O c #F79E33",
"+ c #F79F38",
"@ c #F7A037",
"# c #F7A13B",
"$ c #F8A23C",
"% c #F7A440",
"& c #F8A543",
"* c #F8A846",
"= c #F8A748",
"- c #F8AA4C",
"; c #F8AC51",
": c #F9AF5A",
"> c #F9B15C",
", c #F9B463",
"< c #F9B769",
"1 c #F9B96C",
"2 c #FABC75",
"3 c #F9BF79",
"4 c #FAC07C",
"5 c #FAC383",
"6 c #FAC78A",
"7 c #FAC88E",
"8 c #FBCC94",
"9 c #FACE99",
"0 c #FBD09E",
"q c #FBD4A4",
"w c #FCD5A9",
"e c #FBD9AE",
"r c #FBD7B0",
"t c #FCDCB5",
"y c #FCDFBE",
"u c #FCE0BF",
"i c #FCE2C4",
"p c #FDE5CB",
"a c #FDE8CF",
"s c #FDEAD5",
"d c #FDEDDB",
"f c #FDEFE0",
"g c #FEF1E4",
"h c #FEF5EA",
"j c #FEF7F0",
"k c #FEFAF4",
"l c #FFFFFF",
/* pixels */
"llllllllllllllllllllllllllllllllllllllllllllllllllllllllllllllllllllklllllllllllllllllllllllllllllllllllllllllllllllllllllllllll",
"llllllllllllllllllllllllllllllllllllllllllllllllllllllllapw9885::58888pahlllllllllllllllllllllllllllllllllllllllllllllllllllllll",
"llllllllllllllllllllllllllllllllllllllllllllllllllgt6>+.                 X;4qsklklllllllllllllllllllllllllllllllllllllllllllllll",
"llllllllllllllllllllllllllllllllllllllllllllllgt1O.                           o>9sllllllllllllllllllllllllllllllllllllllllllllll",
"lllllllllllllllllllllllllllllllllllllllllllh9;                                    @4ikllllllllllllllllllllllllllllllllllllllllll",
"lllllllllllllllllllllllllllllllllllllllljt;.                                         o6dllllllllllllllllllllllllllllllllllllllll",
"lllllllllllllllllllllllllllllllllllllld6X                                               ;iklllllllllllllllllllllllllllllllllllll",
"lllllllllllllllllllllllllllllllllllld1.                                                   #qklllllllllllllllllllllllllllllllllll",
"lllllllllllllllllllllllllllllllllld1                                                        @qkkllllllllllllllllllllllllllllllll",
"llllllllllllllllllllllllllllllllh3                                                            *tllllllllllllllllllllllllllllllll",
"lllllllllllllllllllllllllllllll9.                                                               >fllllllllllllllllllllllllllllll",
"llllllllllllllllllllllllllllld;                                                                  o9kllllllllllllllllllllllllllll",
"llllllllllllllllllllllllllll9X                                                                     ;flllllllllllllllllllllllllll",
"llllllllllllllllllllllllllh;                                                                        Xellllllllllllllllllllllllll",
"lllllllllllllllllllllllllio                                                                           1kllllllllllllllllllllllll",
"llllllllllllllllllllllll9.                                                                             &hlllllllllllllllllllllll",
"llllllllllllllllllllllk1                                                                                #illllllllllllllllllllll",
"lllllllllllllllllllllk,                                                                                  .illlllllllllllllllllll",
"llllllllllllllllllllh*                                                                                    .illllllllllllllllllll",
"lllllllllllllllllllh#                                                                                       8lllllllllllllllllll",
"llllllllllllllllllh#                                                                                         qllllllllllllllllll",
"lllllllllllllllllk$                                                                                          .plllllllllllllllll",
"llllllllllllllllk,                                                                                            .illllllllllllllll",
"llllllllllllllll1                                                                                              ohlllllllllllllll",
"lllllllllllllll9                                                                                                $kllllllllllllll",
"llllllllllllllp.                                                                                                 ,llllllllllllll",
"lllllllllllllho                   5yuppp;     oytyupy.                                                            9lllllllllllll",
"llllllllllllk,                    tlllll:     ojlllll                                                             .pllllllllllll",
"llllllllllll9                     illlll:     Xjlllllo                                                             &llllllllllll",
"llllllllllldX                     plllll>     Xjlllll.                                                              5lllllllllll",
"lllllllllll;                      plllll,     XjlllllX                                                               pllllllllll",
"llllllllllq                       ylllll:     ojllllg                                                                &llllllllll",
"lllllllllh@                       tlllll,     oklllll                                                                 qlllllllll",
"lllllllll6                        wlllll,     oklllll.                                                                ojllllllll",
"llllllllfX                        plllll:     XjlllllX                                                                 5llllllll",
"llllllll1                         plllll:     XjlllllX                                                                 Xhlllllll",
"llllllld                          plllll>     okllllj.                                                                  5lllllll",
"lllllll4            +$$%%&$+$%%%&%slllllq234445kllllk:5555455555455555555455555545555555545555555545452@                ohllllll",
"llllllho           Xlllllllllllllllllllllllllllllllllllllllllllllllllllllllllllllllllllllllllllllllllllg<                7llllll",
"llllll7            .jlllllllllllllllllllllllllllllllllllllllllllllllllllllllllllllllllllllllllllllllllllh#               #klllll",
"lllllk#            .gllllllllllllllllllllllllllllllllllllllllllllllllllllllllllllllllllllllllllllllllllll5                rlllll",
"llllli             okllllllllllllllllllllllllllllllllllllllllllllllllllllllllllllllllllllllllllllllllllll9                ;lllll",
"lllll1             Xlllllllllllllllllllllllllllllllllllllllllllllllllllllllllllllllllllllllllllllllllllll:                 gllll",
"lllljo             Xllllllllllllllllllllllllllllllllllllllllllllllllllllllllllllllllllllllllllllllllllllr                  9llll",
"llllt               ,<<<12qhllllllllllld;-#+#+&--35ihllllllllllllllllllkffffhfffffdhffffgffgffffgdgfgfs3X                  ;llll",
"llll,                      +slllllllllli            .=7hlllllllllllllllt.  .  . ..   . . ..  .   .. .                       dlll",
"lllko                       ;kllllllllli               @yllllllllllllllt                                                    9lll",
"llli                        .fllllllllly                .rlllllllllllllt                                                    >lll",
"lll6                         dlllllllllt                 +jllllllllllllt                                                    Xlll",
"lll;                         dlllllllllq                  yllllllllllllt                                                     all",
"lllo                         slllllllllq                  6llllllllllllt                                                     8ll",
"lla                          dllllllllli                  3llllllllllllt                                                     :ll",
"ll9                          plllllllllw                  >llllllllllllt                                                     Oll",
"ll4                          dllllllllly                  >llllllllllllt                                                     .jl",
"ll>                         .flllllllllq                  <llllllllllllt                                                      al",
"llX                          flllllllllq                  rllllllllllllt                                                      ql",
"llX                          dlllllllllq                 +jllllllllllllt                                                      8l",
"la                           dlllllllllt                Xilllllllllllllt                                                      1l",
"la                           gllllllllli               %pllllllllllllllhyyyyyyiyyuuyyyuyuuyuyuyuyyyyuyy7O                     :l",
"la                           glllllllllp            X-wkllllllllllllllllllllllllllllllllllllllllllllllllf%                    :l",
"l0                           dllllllllld&&&%=;;;>3tphlllllllllllllllllllllllllllllllllllllllllllllllllllly                    *l",
"l8                           flllllllllllllllllllllllllllllllllllllllllllllllllllllllllllllllllllllllllllko                    l",
"l8                           hllllllllllllllllllllllllllllllllllllllllllllllllllllllllllllllllllllllllllljo                   .l",
"l8                          .hlllllllllllllllllllllllllllllllllllllllllllllllllllllllllllllllllllllllllllr                     l",
"l7                           hlllllllllllllllllllllllllllllllllllllllllllllllllllllllllllllllllllllllllls+                     l",
"l7                           hllllllllllllllllllllllllllllllllllllllllldwwwwwwwwwqwwwwwqwwwwwwwwwwwqwww3X                      l",
"l8                          .gllllllllll6++%#&&#=-26tdjllllllllllllllllt                                                      .l",
"l8                           hllllllllll1            .+1pklllllllllllllt                                                      &l",
"lt                          .gllllllllll1                >dllllllllllllt                                                      :l",
"la                           gllllllllll<                 Oilllllllllllt                                                      :l",
"ls                           hllllllllll<                  Odllllllllllt                                                      1l",
"lk.                         .hllllllllll1                   2llllllllllt                                                      9l",
"llX                         .hllllllllll<                   oklllllllllt                                                      ql",
"ll;                          fllllllllll<                   .hlllllllllt                                                      pl",
"ll1                         .gllllllllll<                   .glllllllllt                                                      kl",
"ll9                          hllllllllll:                   .hlllllllllt                                                     Oll",
"lls                          hllllllllll,                   +klllllllllt                                                     >ll",
"llj.                        .hllllllllll<                   5llllllllllt                                                     9ll",
"lll&                        .hllllllllll,                  +gllllllllllt                                                     ill",
"lll4                         hllllllllll:                 +slllllllllllt                                                    Xhll",
"lllr                        +kllllllllll,               X3hllllllllllllt                                                    ;lll",
"llljX                       3lllllllllll:            o;7sllllllllllllllt                                                    8lll",
"llll;                :<<<&,wklllllllllll6---&$---,5wphlllllllllllllllllp,222222222222222222222222222222,o                   alll",
"llll9                jlllllllllllllllllllllllllkllllllllllllllllllllllllllllllllllllllllllllllllllllllllg,                 $llll",
"llllh               @llllllllllllllllllllllllllllllllllllllllllllllllllllllllllllllllllllllllllllllllllllh+                5llll",
"lllll;              ;lllllllllllllllllllllllllllllllllllllllllllllllllllllllllllllllllllllllllllllllllllll6                allll",
"lllllt              3lllllllllllllllllllllllllllllllllllllllllllllllllllllllllllllllllllllllllllllllllllll0               ;lllll",
"lllllkO             qlllllllllllllllllllllllllllllllllllllllllllllllllllllllllllllllllllllllllllllllllllll,               9lllll",
"llllll7             illllllllllllllllllllllllllllllllllllllllllllllllllllkllkllllllllllllkllklllllllllllly.              Xjlllll",
"lllllld            .hkjjlkllkkkllllllllllllllllllllllljjhghhghhhhhhhhhhhhhhhhhhhhhhhhhhhhhhhhhhhhhhghhhd7o               4llllll",
"lllllll1            OOXo#o@@oo&&+-glllll4;;4229lllllh-OX. .... ... ............... .....................                 sllllll",
"llllllld                          dllllk+     -llllld                                                                   1lllllll",
"llllllll1                         dllllko     ;llllls                                                                   slllllll",
"lllllllld                         dllllkO     -llllls                                                                  1llllllll",
"lllllllll1                       .kllllkO     %llllld                                                                 Xdllllllll",
"lllllllllhX                       kllllk+     &lllllf                                                                 5lllllllll",
"llllllllll6                       fllllk#     =llllls                                                                Ohlllllllll",
"lllllllllll&                      dllllkO     ;llllld                                                                ellllllllll",
"llllllllllla                     .hllllkO     ;llllls                                                               >lllllllllll",
"llllllllllll5                     fllllko     ;llllls                                                              Xhlllllllllll",
"lllllllllllll&                    jllllkO     &llllls                                                              ellllllllllll",
"lllllllllllllpo                  .fhhhhgO     %hhjhhp                                                             2lllllllllllll",
"lllllllllllllle                    X.. .       oXX...                                                            %llllllllllllll",
"lllllllllllllll4                                                                                                ogllllllllllllll",
"lllllllllllllllk,                                                                                              Xilllllllllllllll",
"llllllllllllllllh$                                                                                             0llllllllllllllll",
"lllllllllllllllllh$                                                                                           8lllllllllllllllll",
"lllllllllllllllllkho                                                                                         8llllllllllllllllll",
"lllllllllllllllllllio                                                                                       8lllllllllllllllllll",
"llllllllllllllllllllh#                                                                                     8llllllllllllllllllll",
"lllllllllllllllllllllh#                                                                                   7lllllllllllllllllllll",
"lllllllllllllllllllllkh&                                                                                 rllllllllllllllllllllll",
"lllllllllllllllllllllllk1                                                                              oilllllllllllllllllllllll",
"lllllllllllllllllllllllll9                                                                            ;gllllllllllllllllllllllll",
"lllllllllllllllllllllllllli#                                                                         3llllllllllllllllllllllllll",
"lllllllllllllllllllllllllllh,                                                                      @ylllllllllllllllllllllllllll",
"lllllllllllllllllllllllllllllrX                                                                   1hllllllllllllllllllllllllllll",
"llllllllllllllllllllllllllllllj1                                                                Oullllllllllllllllllllllllllllll",
"lllllllllllllllllllllllllllllllli;                                                            X5llllllllllllllllllllllllllllllll",
"lllllllllllllllllllllllllllllllllkq@                                                        X6hlllllllllllllllllllllllllllllllll",
"lllllllllllllllllllllllllllllllllllkq#                                                    X3hlllllllllllllllllllllllllllllllllll",
"lllllllllllllllllllllllllllllllllllllki;                                                O5hlllllllllllllllllllllllllllllllllllll",
"lllllllllllllllllllllllllllllllllllllllls6O                                           ;rklllllllllllllllllllllllllllllllllllllll",
"llllllllllllllllllllllllllllllllllllllllllki4o                                     ;9hllllllllllllllllllllllllllllllllllllllllll",
"lllllllllllllllllllllllllllllllllllllllllllllki6&                              X,qglllllllllllllllllllllllllllllllllllllllllllll",
"lllllllllllllllllllllllllllllllllllllllllllllllllhi5:O                    .;>0skllllllllllllllllllllllllllllllllllllllllllllllll",
"llllllllllllllllllllllllllllllllllllllllllllllllllllllkst88,:>:::::::489aallllllllllllllllllllllllllllllllllllllllllllllllllllll",
"llllllllllllllllllllllllllllllllllllllllllllllllllllllllllllllllllllllllllllllllllllllllllllllllllllllllllllllllllllllllllllllll"
};
