/* XPM */
static char *_252d0a5a4cf4440ed135db3d902ed97[] = {
/* columns rows colors chars-per-pixel */
"32 32 174 2 ",
"   c #F7931A",
".  c #F7931B",
"X  c #F7931C",
"o  c #F7941C",
"O  c #F7941D",
"+  c #F7941E",
"@  c #F7951F",
"#  c #F79620",
"$  c #F79621",
"%  c #F79722",
"&  c #F79723",
"*  c #F79724",
"=  c #F79825",
"-  c #F79928",
";  c #F79929",
":  c #F79A29",
">  c #F79A2A",
",  c #F79A2C",
"<  c #F79B2C",
"1  c #F79B2D",
"2  c #F79C2D",
"3  c #F79C2E",
"4  c #F79D31",
"5  c #F79E32",
"6  c #F79E33",
"7  c #F79F34",
"8  c #F7A036",
"9  c #F7A23B",
"0  c #F7A23C",
"q  c #F8A540",
"w  c #F8A642",
"e  c #F8A644",
"r  c #F8A645",
"t  c #F8A746",
"y  c #F8A849",
"u  c #F8AA4C",
"i  c #F8AB4D",
"p  c #F8AB4E",
"a  c #F8AC50",
"s  c #F8AC51",
"d  c #F8AD52",
"f  c #F8AD53",
"g  c #F8AD54",
"h  c #F8AE55",
"j  c #F9AF56",
"k  c #F8B058",
"l  c #F8B15A",
"z  c #F9B15C",
"x  c #F8B25D",
"c  c #F8B25E",
"v  c #F9B25E",
"b  c #F9B35E",
"n  c #F8B360",
"m  c #F9B360",
"M  c #F9B562",
"N  c #F9B563",
"B  c #F9B664",
"V  c #F9B767",
"C  c #F9B768",
"Z  c #F9B769",
"A  c #F9B869",
"S  c #F9B86A",
"D  c #F9B96B",
"F  c #F9BA6D",
"G  c #F9BA6E",
"H  c #F9BB70",
"J  c #FABC71",
"K  c #F9BC72",
"L  c #F9BD73",
"P  c #F9BD75",
"I  c #FABD74",
"U  c #FABE76",
"Y  c #FABE77",
"T  c #F9BF79",
"R  c #FABF78",
"E  c #FABF79",
"W  c #FAC07A",
"Q  c #FAC07C",
"!  c #FAC17C",
"~  c #FAC17D",
"^  c #FAC17E",
"/  c #FAC27E",
"(  c #F9C280",
")  c #FAC381",
"_  c #FAC382",
"`  c #FAC483",
"'  c #FAC484",
"]  c #FAC584",
"[  c #FAC585",
"{  c #FAC687",
"}  c #FAC688",
"|  c #FAC789",
" . c #FAC78A",
".. c #FAC88A",
"X. c #FAC98D",
"o. c #FACA8F",
"O. c #FBCB91",
"+. c #FBCB92",
"@. c #FBCC93",
"#. c #FBCC94",
"$. c #FBCD95",
"%. c #FACD96",
"&. c #FBCD96",
"*. c #FBCF9A",
"=. c #FACF9B",
"-. c #FBD19D",
";. c #FBD19E",
":. c #FBD19F",
">. c #FBD2A0",
",. c #FBD2A1",
"<. c #FBD3A2",
"1. c #FBD3A3",
"2. c #FBD5A6",
"3. c #FBD6A9",
"4. c #FBD6AB",
"5. c #FBD9B0",
"6. c #FBD9B1",
"7. c #FBDAB2",
"8. c #FCDBB4",
"9. c #FCDCB6",
"0. c #FCDDB7",
"q. c #FCDDB9",
"w. c #FCDEBB",
"e. c #FCDFBB",
"r. c #FCDFBC",
"t. c #FCDFBE",
"y. c #FCE0BF",
"u. c #FCE0C0",
"i. c #FCE1C0",
"p. c #FCE1C1",
"a. c #FCE2C2",
"s. c #FCE2C3",
"d. c #FCE2C4",
"f. c #FCE3C5",
"g. c #FCE4C6",
"h. c #FCE6CA",
"j. c #FCE6CB",
"k. c #FCE7CD",
"l. c #FDE7CD",
"z. c #FCE7CE",
"x. c #FCE8D0",
"c. c #FDE8D0",
"v. c #FDEAD3",
"b. c #FDECD9",
"n. c #FDEDDA",
"m. c #FDEEDD",
"M. c #FDEFDD",
"N. c #FDF0E1",
"B. c #FDF2E4",
"V. c #FDF2E5",
"C. c #FDF3E8",
"Z. c #FDF4E8",
"A. c #FEF4E9",
"S. c #FDF5EA",
"D. c #FEF5EB",
"F. c #FDF5EC",
"G. c #FEF6EC",
"H. c #FEF6ED",
"J. c #FEF7F0",
"K. c #FEF7F1",
"L. c #FEF8F2",
"P. c #FEF9F3",
"I. c #FEF9F4",
"U. c #FEFAF5",
"Y. c #FEFBF8",
"T. c #FEFCF8",
"R. c #FEFCF9",
"E. c #FEFCFA",
"W. c #FEFDFB",
"Q. c #FEFDFC",
"!. c #FEFEFC",
"~. c #FEFEFD",
"^. c #FEFEFE",
"/. c gray100",
/* pixels */
"/././././././././././.T.g.*.! S F W @.i.U./././././././././././.",
"/././././././././.j.F =         . . . . # M y./././././././././.",
"/././././././.m.l .                 . .     . u x./././././././.",
"/./././././.<.%                                 o X././././././.",
"/././././.!     . . .                               B Y././././.",
"/./././.T       . o . .                             o B E./././.",
"/././.<.        w Q % 6 Q 6                             | /././.",
"/./.m.%         Q /.: d /.h                             o j././.",
"/./.c           Q /.: g /.h             . . . .           e /./.",
"/.x.      +.$.$.f./.4.e./.q.2.2.2.2.2.2.2.2.1.1.2.<.<       0./.",
"/.K     X /././././././././././././././././././././.n       k /.",
"E.:       < 9 N./.K.* % 7 S A././.H.u u u u u u u e         X F.",
"k.            e./.D.        T /./.D.. .               .       7.",
":.            t./.A.        Z /./.H.. .               .     . ' ",
"'             t./.D.      7 z././.L.! ! ! ! ! ! ! W : . . . . V ",
"K             y././.k.v.V./././././././././././././.)   . . . h ",
"H             s././.:.$.:.f.E././.L.U U U U U T U U =         g ",
"/             y././.2 . . . t L./.D.. .                       S ",
":..           y././.: . . .   s./.S.. .                       ' ",
"j..           s././.:   . . : C./.D.  .                       7.",
"T.& . .   d V C././.D n Z @.B././.L.Z S S S S S S Z <       . D.",
"/.F . .   b././././././././././././././././././././.<.      d /.",
"/.x.      | @.@.f./.:.y./.4.| ' | | | | | | | | | ' 9       7./.",
"/./.h         . ' /.o c /.y                     . .       q E./.",
"/./.b.o . . . . ' /.o n /.u                     . .       f././.",
"/././.*.. .   . p | o 0 | 6                     . .   . Q /././.",
"/./././.K .                                     .     c E./././.",
"/./././.E.K                                         l E././././.",
"/./././././.%.o                                   _ E./././././.",
"/././././././.v.p                             e g./././././././.",
"/././././././././.y.M %                 o k 8./././././././././.",
"/././././././././././.L.q.+.H M B F ..8.H./././././././././././."
};
